<svg width="250" height="250" viewBox="0 0 250 250" fill="none" xmlns="http://www.w3.org/2000/svg">
<path d="M212.802 166.904C226.528 168.367 244.037 165.691 247.029 152.216C248.974 143.455 250 134.347 250 125C250 55.9644 194.036 0 125 0C55.9644 0 0 55.9644 0 125C0 194.036 55.9644 250 125 250C134.347 250 143.455 248.974 152.216 247.029C165.691 244.037 168.367 226.528 166.904 212.802C166.747 211.334 166.667 209.843 166.667 208.333C166.667 185.321 185.321 166.667 208.333 166.667C209.843 166.667 211.334 166.747 212.802 166.904Z" fill="black" fill-opacity="0.2"/>
<path d="M240 208.75C240 226.009 226.009 240 208.75 240C191.491 240 177.5 226.009 177.5 208.75C177.5 191.491 191.491 177.5 208.75 177.5C226.009 177.5 240 191.491 240 208.75Z" fill="#77DD77"/>
</svg>
